Coordinates
version=1
nRows=29
nColumns=22
inDegrees=yes

Units are S.I. units (second, meters, Newtons, ...)
If the header above contains a line with 'inDegrees', this indicates whether rotational values are in degrees (yes) or radians (no).

endheader
time	pelvis_tilt	pelvis_list	pelvis_rotation	pelvis_tx	pelvis_ty	pelvis_tz	hip_flexion_r	hip_adduction_r	hip_rotation_r	knee_angle_r	ankle_angle_r	subtalar_angle_r	hip_flexion_l	hip_adduction_l	hip_rotation_l	knee_angle_l	ankle_angle_l	subtalar_angle_l	lumbar_extension	lumbar_bending	lumbar_rotation
      2.37000000	     -3.96551056	     -5.04195771	    -11.92793342	     -0.44897793	      0.96659341	      0.25204775	      4.44215510	     13.74076652	     -2.27652816	    -16.70284611	     11.90994493	     -4.59950681	     20.38388732	    -11.37887975	     13.48775374	    -35.68494961	     12.94424457	     -1.81125981	      0.29411769	      8.39887549	     -5.81520005
      2.38000000	     -4.06676830	     -4.89126909	    -12.83785257	     -0.44304143	      0.96605092	      0.25563133	      3.91703220	     13.74221412	     -1.41978787	    -16.55884839	     12.12321247	     -4.63656079	     20.93291126	    -11.00496969	     14.32381314	    -34.40075087	     12.66313345	     -1.61390208	      0.32564432	      8.26541167	     -5.61037256
      2.39000000	     -4.17006879	     -4.74126312	    -13.74578791	     -0.43714554	      0.96547387	      0.25921505	      3.42368486	     13.73169908	     -0.57461411	    -16.45925312	     12.33267536	     -4.67173012	     21.46907058	    -10.65248563	     15.14632112	    -33.10374338	     12.29602358	     -1.46069791	      0.35542522	      8.13539182	     -5.40860796
      2.40000000	     -4.27631088	     -4.59643741	    -14.65168547	     -0.43129095	      0.96486490	      0.26280556	      2.96166750	     13.71578572	      0.25440217	    -16.40250742	     12.52833145	     -4.70225390	     21.99586013	    -10.33144329	     15.93378893	    -31.79937482	     11.83639146	     -1.36675111	      0.38295724	      8.01245538	     -5.20854699
      2.41000000	     -4.38329858	     -4.46080202	    -15.55568223	     -0.42545150	      0.96423102	      0.26640282	      2.51691750	     13.69851811	      1.06923729	    -16.37412373	     12.71825292	     -4.72533739	     22.50871981	    -10.04968617	     16.66287193	    -30.48683169	     11.29735874	     -1.33385897	      0.40664139	      7.90228478	     -5.01066535
      2.42000000	     -4.49409083	     -4.33797162	    -16.45548814	     -0.41962965	      0.96357026	      0.26999915	      2.09215646	     13.68424256	      1.86161272	    -16.37471589	     12.88940232	     -4.73529843	     23.01551239	     -9.81048380	     17.32382839	    -29.17496806	     10.68688117	     -1.34511004	      0.42903633	      7.81053999	     -4.82414179
      2.43000000	     -4.60444558	     -4.23103201	    -17.34442599	     -0.41380805	      0.96288438	      0.27359826	      1.66980216	     13.67595995	      2.63282390	    -16.38579661	     13.05881169	     -4.72474389	     23.51435516	     -9.61436259	     17.90083533	    -27.86915306	     10.03182366	     -1.39348894	      0.44437969	      7.73643275	     -4.64606550
      2.44000000	     -4.71892089	     -4.14033131	    -18.21845121	     -0.40796752	      0.96217285	      0.27716722	      1.25926483	     13.67306455	      3.37091226	    -16.41577335	     13.21466015	     -4.69311430	     24.00956200	     -9.45572462	     18.39366677	    -26.57263943	      9.36045708	     -1.42414451	      0.45947850	      7.68846553	     -4.48991695
      2.45000000	     -4.83360486	     -4.06308458	    -19.07610677	     -0.40209432	      0.96143672	      0.28072896	      0.84806776	     13.67342755	      4.08595483	    -16.45239662	     13.36500976	     -4.63952456	     24.49606871	     -9.32972022	     18.79517049	    -25.28756546	      8.70071079	     -1.41416064	      0.47196162	      7.65767178	     -4.35600493
      2.46000000	     -4.94215093	     -4.00035121	    -19.91723903	     -0.39615955	      0.96068494	      0.28427894	      0.42881715	     13.67476838	      4.77773597	    -16.49820569	     13.52032204	     -4.55939897	     24.96041638	     -9.23132294	     19.10392657	    -24.01225544	      8.10053813	     -1.35177746	      0.47569718	      7.64362974	     -4.23597841
      2.47000000	     -5.04312701	     -3.94865199	    -20.74192043	     -0.39014567	      0.95992244	      0.28780584	     -0.00428548	     13.67101450	      5.45497063	    -16.54518441	     13.67910820	     -4.44766743	     25.39867557	     -9.15177397	     19.31766161	    -22.74641901	      7.59362230	     -1.21570302	      0.46985294	      7.64596128	     -4.12734275
      2.48000000	     -5.14180501	     -3.90473965	    -21.55359030	     -0.38406264	      0.95914341	      0.29132198	     -0.43661026	     13.66259257	      6.12683982	    -16.60752268	     13.82784410	     -4.32140617	     25.81285674	     -9.08688493	     19.44498577	    -21.49178212	      7.21388784	     -1.00349862	      0.45882060	      7.66092899	     -4.03925595
      2.49000000	     -5.22893313	     -3.87226352	    -22.35524449	     -0.37788799	      0.95836562	      0.29484853	     -0.88958723	     13.64686518	      6.78856028	    -16.66881489	     13.98600205	     -4.14969550	     26.18309383	     -9.03556351	     19.49887856	    -20.24406168	      6.99189039	     -0.69693097	      0.43332816	      7.68537969	     -3.95458737
      2.50000000	     -5.32137515	     -3.84306384	    -23.15256401	     -0.37166384	      0.95756630	      0.29838152	     -1.33032845	     13.62600892	      7.46122949	    -16.74925033	     14.12352148	     -3.97058078	     26.53078996	     -8.99307191	     19.49530587	    -19.01046594	      6.91422126	     -0.35802688	      0.40801503	      7.71906898	     -3.88046466
      2.51000000	     -5.40493617	     -3.82394297	    -23.93412647	     -0.36533065	      0.95677980	      0.30191764	     -1.79433821	     13.59300656	      8.11195751	    -16.81589960	     14.27199526	     -3.71688686	     26.82365525	     -8.95521529	     19.47201383	    -17.77432645	      6.96720928	      0.08135608	      0.37382478	      7.76355302	     -3.81570904
      2.52000000	     -5.51742633	     -3.80334400	    -24.75157518	     -0.35900771	      0.95594526	      0.30553664	     -2.20960767	     13.56691749	      8.81188692	    -16.92892210	     14.36643481	     -3.53271848	     27.10804026	     -8.94784151	     19.40870097	    -16.56234626	      7.12899015	      0.39013377	      0.35864304	      7.81592182	     -3.73502388
      2.53000000	     -5.61027783	     -3.79404187	    -25.57073503	     -0.35257302	      0.95515015	      0.30920917	     -2.66894554	     13.52404707	      9.50387372	    -17.01748798	     14.47277780	     -3.25710262	     27.30703874	     -8.95343806	     19.36834693	    -15.34126475	      7.37145545	      0.80117448	      0.32289642	      7.87207661	     -3.63268973
      2.54000000	     -5.72492145	     -3.79210416	    -26.40340297	     -0.34612502	      0.95433229	      0.31296555	     -3.10233939	     13.49118681	     10.21456421	    -17.12641516	     14.54614601	     -2.97416004	     27.47786200	     -8.98958246	     19.39329037	    -14.14361003	      7.63169443	      1.18643929	      0.30029260	      7.93918060	     -3.53816331
      2.55000000	     -5.85893214	     -3.80079116	    -27.24927637	     -0.33963022	      0.95350056	      0.31681287	     -3.52439811	     13.46777267	     10.93925023	    -17.24144135	     14.59000605	     -2.69766443	     27.60988756	     -9.06290622	     19.50779275	    -12.97487248	      7.88614791	      1.53825758	      0.29156537	      8.02287885	     -3.43447584
      2.56000000	     -5.99246432	     -3.82503047	    -28.10991727	     -0.33308685	      0.95267969	      0.32077961	     -3.96238403	     13.44869017	     11.67490595	    -17.35429602	     14.62042868	     -2.36902891	     27.68848005	     -9.17364494	     19.71233215	    -11.86592981	      8.13598676	      1.91909694	      0.27222915	      8.11386712	     -3.31319304
      2.57000000	     -6.15593048	     -3.86142367	    -28.97623798	     -0.32650528	      0.95182843	      0.32485478	     -4.37153847	     13.45172290	     12.41543329	    -17.48876007	     14.61969063	     -2.06888851	     27.75702872	     -9.32561784	     20.03661379	    -10.85278801	      8.33636007	      2.23636017	      0.27708374	      8.22529365	     -3.20291735
      2.58000000	     -6.33166488	     -3.90694457	    -29.85065186	     -0.31988766	      0.95096162	      0.32905327	     -4.76571838	     13.46711769	     13.16236943	    -17.65013647	     14.59377321	     -1.78895276	     27.81241185	     -9.50586975	     20.45233125	     -9.98219520	      8.50141784	      2.50481033	      0.28731831	      8.34246824	     -3.10294343
      2.59000000	     -6.48785153	     -3.95548227	    -30.73132056	     -0.31321455	      0.95011327	      0.33334758	     -5.16708468	     13.47153214	     13.91827083	    -17.84838643	     14.57150651	     -1.45240309	     27.84695424	     -9.67999664	     20.93955770	     -9.31767056	      8.65831960	      2.78946145	      0.27332746	      8.44218963	     -2.98562170
      2.60000000	     -6.68117064	     -4.00628266	    -31.61987537	     -0.30645393	      0.94922840	      0.33777377	     -5.52588683	     13.49613475	     14.65596130	    -18.07906799	     14.49516692	     -1.20904540	     27.90289511	     -9.87406017	     21.42995533	     -8.84781053	      8.78416182	      2.98313602	      0.30340596	      8.56169793	     -2.89929184
      2.61000000	     -6.85841898	     -4.05031468	    -32.50896330	     -0.29958022	      0.94835730	      0.34229351	     -5.87846337	     13.50349585	     15.37392804	    -18.35828402	     14.41265835	     -0.97373452	     27.94646269	    -10.03580657	     21.92420222	     -8.61849938	      8.88940640	      3.16453613	      0.32876396	      8.66070902	     -2.80660081
      2.62000000	     -7.00699211	     -4.08148944	    -33.39937686	     -0.29255975	      0.94751875	      0.34690101	     -6.22723272	     13.47762500	     16.05829734	    -18.69714612	     14.35808651	     -0.62137432	     27.94942526	    -10.15270192	     22.38061351	     -8.60074205	      8.97891840	      3.40702414	      0.34460994	      8.73063451	     -2.73922516
      2.63000000	     -7.18006096	     -4.09923452	    -34.28651477	     -0.28541923	      0.94665027	      0.35160515	     -6.51887862	     13.45937884	     16.70286912	    -19.09880700	     14.22343711	     -0.46737400	     27.96273952	    -10.24505803	     22.83806156	     -8.78793151	      8.98946821	      3.49727093	      0.40446353	      8.79980633	     -2.68569908
      2.64000000	     -7.32413575	     -4.09365555	    -35.17879345	     -0.27808881	      0.94582200	      0.35642624	     -6.80122881	     13.40030680	     17.31636390	    -19.55994465	     14.07581662	     -0.22472392	     27.91254517	    -10.28576643	     23.25672777	     -9.13344326	      8.96982232	      3.59905733	      0.47054268	      8.83101127	     -2.63328423
      2.65000000	     -7.43276706	     -4.05549646	    -36.05041451	     -0.27054392	      0.94504171	      0.36130450	     -7.05686440	     13.28347518	     17.84469380	    -20.09235594	     13.95203330	      0.38347240	     27.79866433	    -10.25015454	     23.68487356	     -9.60612078	      8.85761892	      3.73053671	      0.54796935	      8.81269611	     -2.59725138
